<svg width="210" height="57" viewBox="0 0 210 57" fill="none" xmlns="http://www.w3.org/2000/svg">
<g clip-path="url(#clip0_21_602)">
<path d="M185.823 27.0852H194.121V7.85939H204.162V0.870659H175.42V7.90448H185.823V27.0852Z" fill="#000F35"/>
<path d="M59.9242 29.8356V56.0591H68.1777V29.8356H59.9242Z" fill="#000F35"/>
<path d="M102.218 29.8356H93.4867L85.7462 46.4553L78.0058 29.8356H68.9473L81.1551 56.0591H90.3374L102.218 30.539V36.7432V39.4936V46.4011V49.1516V56.0591H110.489H127.217V49.1516H110.489V46.4011H125.183V39.4936H110.489V36.7432H127.217V29.8356H110.489H102.218Z" fill="#000F35"/>
<path d="M210 36.7432V29.8356H193.679H185.62V36.7432V39.4936V46.4011V49.1516V56.0591H193.679H210V49.1516H193.679V46.4011H208.01V39.4936H193.679V36.7432H210Z" fill="#000F35"/>
<path d="M50.9541 29.8356H50.0872V44.3992L37.2691 29.8356H29.1394V56.0591H37.2691V40.9454L50.9541 56.0231V56.0591H58.1815V29.8356H57.3145H50.9541Z" fill="#000F35"/>
<path d="M181.135 41.5857C180.294 41.1258 179.277 40.729 178.083 40.4044C176.889 40.0797 175.243 39.7551 173.164 39.4395C172.262 39.2952 169.989 39.187 169.467 39.1148C168.936 39.0427 168.582 38.9796 168.396 38.9345C167.467 38.7632 166.822 38.5828 166.459 38.3934C166.096 38.2041 165.919 37.9335 165.919 37.5908C165.919 37.1039 166.202 36.7432 166.76 36.4997C167.317 36.2562 168.131 36.139 169.184 36.139C170.767 36.139 173.863 36.3644 175.358 36.8243C176.853 37.2842 178.516 38.159 179.631 38.9796L184.143 33.1722C182.524 32.0089 180.852 31.062 178.525 30.4218C176.199 29.7815 173.394 29.4569 170.723 29.4569C168.856 29.4569 166.972 29.6462 165.344 30.016C163.717 30.3947 162.761 30.7103 161.514 31.4408C160.081 32.2614 158.949 33.4788 158.205 34.624C157.462 35.7693 157.091 37.0318 157.091 38.4115C157.091 40.5126 157.896 42.1809 159.515 43.4163C161.134 44.6517 163.708 45.5084 167.255 45.9954C167.352 46.0224 167.919 46.0946 168.954 46.2298C169.997 46.3651 171.935 46.4733 172.404 46.5725C173.616 46.7619 174.438 46.9693 174.872 47.1857C175.305 47.4021 175.526 47.7087 175.526 48.0965C175.526 48.6015 175.199 48.9983 174.544 49.2778C173.89 49.5574 173.032 49.6115 171.829 49.6115C169.997 49.6115 166.919 49.4041 165.132 48.8179C163.345 48.2318 161.311 47.2308 159.913 46.1847L155.18 52.5512C156.551 53.6604 158.657 54.5802 161.496 55.2926C164.336 56.005 167.202 56.3657 170.095 56.3657C172.05 56.3657 173.89 56.1854 175.615 55.8247C177.34 55.464 178.853 54.9319 180.162 54.2285C181.683 53.4079 182.842 52.407 183.638 51.2166C184.434 50.0263 184.824 48.7097 184.824 47.2578C184.824 46.0044 184.523 44.9042 183.913 43.9574C183.302 43.0375 182.373 42.244 181.135 41.5857Z" fill="#000F35"/>
<path d="M74.4762 27.5271C81.102 27.5271 86.7282 23.8659 88.922 18.7258L81.2258 15.768C80.4474 18.5725 77.6431 20.6466 74.3081 20.6466C70.3715 20.6466 67.1781 17.7519 67.1781 14.1809C67.1781 10.6189 70.3715 7.72418 74.3081 7.72418C77.6431 7.72418 80.4385 9.78022 81.2081 12.5757L89.0016 9.56379C86.9228 4.28843 81.1993 0.51001 74.4762 0.51001C65.9838 0.51001 59.0749 6.56089 59.0749 14.0185C59.0749 21.4762 65.9838 27.5271 74.4762 27.5271Z" fill="#000F35"/>
<path d="M161.284 27.5271C167.91 27.5271 173.536 23.8659 175.73 18.7258C176.34 17.2649 176.685 15.6778 176.685 14.0185C176.685 12.4585 176.376 10.9525 175.818 9.55478C173.731 4.28843 168.007 0.51001 161.284 0.51001C152.792 0.51001 145.883 6.56089 145.883 14.0185C145.883 21.4762 152.792 27.5271 161.284 27.5271ZM161.116 7.72418C164.451 7.72418 167.246 9.78022 168.016 12.5757C168.166 13.0807 168.246 13.6218 168.246 14.1809C168.246 14.7309 168.166 15.263 168.034 15.768C167.255 18.5725 164.451 20.6466 161.116 20.6466C157.179 20.6466 153.986 17.7519 153.986 14.1809C153.986 10.6189 157.188 7.72418 161.116 7.72418Z" fill="#000F35"/>
<path d="M38.3041 27.0852L46.1241 10.4745L53.953 27.0852H63.1177L50.7684 0.870659H41.4887L29.1394 27.0852H38.3041Z" fill="#000F35"/>
<path d="M19.497 43.4524C19.497 46.4823 18.6301 48.2317 14.1893 48.2317C8.7312 48.2317 8.28005 45.8691 8.28005 43.4524V29.8356H0V43.4524C0 51.6314 5.30772 56.51 14.1893 56.51C22.6994 56.51 27.7771 51.6314 27.7771 43.4524V29.8356H19.497V43.4524Z" fill="#000F35"/>
<path d="M118.362 0.870659H107.632L97.1401 10.9615V0.870659H89.0105V27.0852H97.1401V21.3499L101.377 17.2558L108.932 27.0852H119.256L107.304 11.5386L118.362 0.870659Z" fill="#000F35"/>
<path d="M18.9043 27.3376C29.1482 27.3376 32.3594 21.8459 32.3594 16.8951C32.3594 11.9444 32.3594 0.870659 32.3594 0.870659H24.1855V15.8581C24.1855 15.8581 24.4686 20.1415 19.267 20.1415C14.0655 20.1415 13.3312 15.813 13.3312 15.813L6.25426 20.5563C6.25426 20.5563 8.66043 27.3376 18.9043 27.3376Z" fill="#000F35"/>
<path d="M135.807 0.870659H126.978H126.801H119.034V7.84135H126.978H128.173H135.143C136.497 7.84135 137.594 8.96857 137.594 10.3663C137.594 11.7641 136.497 12.8913 135.143 12.8913H128.173H126.978H119.034V27.0852H126.978V19.8439H136.134C136.134 19.8439 145.458 19.9702 145.458 10.4385C145.458 0.906731 135.807 0.870659 135.807 0.870659Z" fill="#000F35"/>
<path d="M150.607 47.1316C153.216 46.1757 156.162 43.9754 156.162 38.9255C156.162 29.8627 146.352 29.8266 146.352 29.8266H129.296V36.5538H137.373H141.707H145.856C147.254 36.5538 148.395 37.6269 148.395 38.9525C148.395 40.2781 147.254 41.3693 145.856 41.3693H141.707H137.373H129.296V56.0501H137.373V47.871H142.344L147.581 56.0501H156.914L150.607 47.1316Z" fill="#000F35"/>
</g>
<defs>
<clipPath id="clip0_21_602">
<rect width="210" height="56" fill="white" transform="translate(0 0.51001)"/>
</clipPath>
</defs>
</svg>
